<svg width="124" height="124" viewBox="0 0 124 124" fill="none" xmlns="http://www.w3.org/2000/svg">
<path d="M61.9132 91.3507C55.5892 83.4147 51.8692 76.4583 50.6292 70.5063C49.3892 65.6703 49.8852 61.8263 51.9932 58.9743C54.2252 55.6263 57.5732 54.0143 61.9132 54.0143C66.2532 54.0143 69.6012 55.6263 71.8332 58.9743C73.9412 61.8263 74.4372 65.6703 73.1972 70.5063C71.8332 76.5823 68.1132 83.5263 61.9132 91.3507ZM106.826 96.6827C105.958 102.511 101.99 107.347 96.534 109.703C85.994 114.291 75.5656 106.975 66.6376 97.0547C81.406 78.5663 84.134 64.1823 77.7976 54.8699C74.0776 49.5379 68.7456 46.9339 61.9132 46.9339C48.1492 46.9339 40.5728 58.5899 43.5488 72.1183C45.2848 79.4343 49.8728 87.7547 57.1888 97.0547C52.6008 102.139 48.2608 105.735 44.4168 107.967C41.4408 109.579 38.5888 110.571 35.8608 110.819C23.3368 112.679 13.5284 100.527 17.9924 87.9903C18.6124 86.3783 19.8524 83.4023 21.9604 78.8143L22.0844 78.5663C28.9044 63.6739 37.2248 46.8099 46.7728 28.0735L47.0208 27.4535L49.7488 22.2455C51.8568 18.4015 52.7248 16.6655 56.0728 14.5575C57.6848 13.5655 59.6688 13.0695 61.9008 13.0695C66.3648 13.0695 69.8368 15.6735 71.3248 17.7815C72.0688 18.8975 72.9368 20.3855 74.0528 22.2455L76.6568 27.3295L77.0288 28.0735C86.5768 46.8099 94.8972 63.6739 101.717 78.5663L101.841 78.6903L104.321 84.3943L105.809 87.9903C106.95 90.8547 107.198 93.7067 106.826 96.6827ZM112.53 85.5103C111.662 82.7823 110.174 79.5583 108.314 75.7143V75.5903C99.51 56.8539 91.3136 39.9899 83.5016 24.8495L83.0056 24.1055C77.4256 12.6975 73.4576 5.86511 61.9132 5.86511C50.5052 5.86511 45.6568 13.8011 40.6968 24.1055L40.3248 24.8495C32.5128 39.9899 24.3164 56.8539 15.5124 75.5903V75.8383L12.9084 81.5423C11.9164 83.8983 11.4204 85.1383 11.2964 85.5103C4.9724 102.883 17.9924 118.135 33.7528 118.135C33.8768 118.135 34.3728 118.135 34.9928 118.011H36.7288C44.9128 117.019 53.3572 111.811 61.9132 102.498C70.4692 111.798 78.9136 117.019 87.0976 118.011H88.8336C89.4536 118.135 89.9496 118.135 90.0736 118.135C105.834 118.147 118.854 102.883 112.53 85.5103Z" fill="white"/>
</svg>
